<?xml version="1.0" standalone="no"?><!DOCTYPE svg PUBLIC "-//W3C//DTD SVG 1.1//EN" "http://www.w3.org/Graphics/SVG/1.1/DTD/svg11.dtd"><svg t="1731582701052" class="icon" viewBox="0 0 1024 1024" version="1.1" xmlns="http://www.w3.org/2000/svg" p-id="985" width="32" height="32" xmlns:xlink="http://www.w3.org/1999/xlink"><path d="M707.242667 909.767111h-381.155556a208.327111 208.327111 0 0 1-145.237333-64.682667c-45.511111-45.738667-69.632-99.498667-66.844445-185.856 6.769778-169.927111 141.255111-280.177778 212.309334-325.176888-17.294222-19.911111-39.822222-38.001778-46.933334-77.937778a94.72 94.72 0 0 1 19.911111-78.506667c27.648-34.588444 72.419556-43.349333 119.352889-17.863111A123.164444 123.164444 0 0 1 514.275556 113.777778a124.757333 124.757333 0 0 1 97.109333 46.193778 90.965333 90.965333 0 0 1 120.775111 18.090666c17.863111 21.731556 25.144889 50.346667 19.911111 77.994667-4.551111 30.833778-23.722667 48.184889-49.948444 77.994667 71.395556 45.966222 200.817778 157.809778 207.758222 325.006222 3.584 85.902222-15.758222 140.288-61.895111 186.026666a198.997333 198.997333 0 0 1-140.686222 64.682667z m-62.520889-274.773333H546.247111v-61.895111h98.474667a24.291556 24.291556 0 0 0 0-48.583111H551.594667l75.662222-75.662223a24.348444 24.348444 0 1 0-34.474667-34.360889l-72.817778 72.817778-72.647111-72.817778a24.348444 24.348444 0 1 0-34.417777 34.417778l75.662222 75.605334H400.099556a24.291556 24.291556 0 0 0 0 48.583111h97.507555v61.838222H400.156444a24.291556 24.291556 0 0 0 0 48.583111h97.507556v92.956444a24.291556 24.291556 0 0 0 48.583111 0v-92.956444h98.474667a24.291556 24.291556 0 1 0 0-48.583111z" fill="#434343" p-id="986"></path></svg>