<svg xmlns="http://www.w3.org/2000/svg" viewBox="0 0 12 11"><g fill="#ff0f23" style="opacity:1"><path fill-rule="EVENODD" d="M.603.01a.5.5 0 1 0-.198.98l.623.124a.61.61 0 0 1 .462.405q.03.092.043.188l.687 5.458A2 2 0 0 0 1.007 9c0 1.105.902 2 2.015 2a2.01 2.01 0 0 0 2.003-1.786l3.528-.27a3.51 3.51 0 0 0 3.243-3.199l.199-2.37a1.504 1.504 0 0 0-1.506-1.625H2.554l-.021-.167a2 2 0 0 0-.087-.38 1.62 1.62 0 0 0-1.22-1.07zM2.68 2.75l.536 4.26c.75.07 1.38.55 1.662 1.212l3.598-.275a2.51 2.51 0 0 0 2.316-2.285l.199-2.37a.5.5 0 0 0-.502-.542zM4.03 9c0 .552-.452 1-1.008 1a1.004 1.004 0 0 1-1.007-1c0-.552.45-1 1.007-1s1.007.448 1.007 1" style="mix-blend-mode:normal"/><path fill-rule="NONZERO" d="M11.584 9.25c0 .414-.338.75-.756.75a.753.753 0 0 1-.755-.75c0-.414.338-.75.755-.75.418 0 .756.336.756.75" style="mix-blend-mode:normal"/></g></svg>