<svg xmlns="http://www.w3.org/2000/svg" viewBox="0 0 20 20"><symbol xmlns="http://www.w3.org/2000/svg" id="fe7abf6e-d224-421d-97b7-7e6bf81cbca9" width="20" height="20" viewBox="0 0 20 20"><path d="M5.31279 8.93214C4.9534 9.21964 4.89513 9.74405 5.18263 10.1034C5.47014 10.4628 5.99455 10.5211 6.35394 10.2336L9.16667 7.98345V13.7498C9.16667 14.2101 9.53977 14.5832 10 14.5832C10.4602 14.5832 10.8333 14.2101 10.8333 13.7498V7.98394L13.6461 10.234C14.0055 10.5215 14.5299 10.4632 14.8174 10.1038C15.1049 9.74444 15.0466 9.22003 14.6872 8.93254L10.5442 5.61828C10.2462 5.36089 9.79799 5.34406 9.47943 5.59889L5.31279 8.93214Z" fill="#ffffff"></path><path fill-rule="evenodd" clip-rule="evenodd" d="M10 20C15.5228 20 20 15.5228 20 10C20 4.47715 15.5228 0 10 0C4.47715 0 0 4.47715 0 10C0 15.5228 4.47715 20 10 20ZM10 18.3333C14.6024 18.3333 18.3333 14.6024 18.3333 10C18.3333 5.39763 14.6024 1.66667 10 1.66667C5.39763 1.66667 1.66667 5.39763 1.66667 10C1.66667 14.6024 5.39763 18.3333 10 18.3333Z" fill="#ffffff"></path></symbol><use href="#fe7abf6e-d224-421d-97b7-7e6bf81cbca9"></use></svg>