<svg xmlns="http://www.w3.org/2000/svg" viewBox="0 0 20 20"><symbol xmlns="http://www.w3.org/2000/svg" id="a" viewBox="0 0 20 20"><path fill="#1A1A1A" d="M5.313 8.932a.833.833 0 1 0 1.04 1.302l2.814-2.25v5.766a.833.833 0 1 0 1.666 0V7.984l2.813 2.25a.833.833 0 0 0 1.041-1.301l-4.143-3.315a.834.834 0 0 0-1.065-.02z"/><path fill="#1A1A1A" fill-rule="evenodd" d="M10 20c5.523 0 10-4.477 10-10S15.523 0 10 0 0 4.477 0 10s4.477 10 10 10m0-1.667a8.333 8.333 0 1 0 0-16.666 8.333 8.333 0 0 0 0 16.666" clip-rule="evenodd"/></symbol><use href="#a"/></svg>